<svg width="47" height="46" viewBox="0 0 47 46" fill="none" xmlns="http://www.w3.org/2000/svg">
<path d="M23.065 0C20.0361 0 17.0368 0.600084 14.2384 1.76599C11.44 2.9319 8.89738 4.64079 6.75559 6.7951C2.43006 11.1459 0 17.0469 0 23.1999C0 33.4543 6.61966 42.1543 15.7765 45.2399C16.9297 45.4255 17.2988 44.7063 17.2988 44.0799V40.1591C10.9098 41.5511 9.54892 37.0503 9.54892 37.0503C8.48793 34.3591 6.9887 33.6399 6.9887 33.6399C4.88979 32.2015 7.15016 32.2479 7.15016 32.2479C9.45666 32.4103 10.6791 34.6375 10.6791 34.6375C12.6858 38.1639 16.0763 37.1199 17.391 36.5631C17.5986 35.0551 18.1983 34.0343 18.8441 33.4543C13.7237 32.8743 8.34954 30.8791 8.34954 22.0399C8.34954 19.4647 9.22601 17.4 10.7252 15.7528C10.4946 15.1728 9.68731 12.76 10.9559 9.62797C10.9559 9.62797 12.8934 9.00157 17.2988 11.9944C19.1209 11.484 21.1045 11.2288 23.065 11.2288C25.0256 11.2288 27.0092 11.484 28.8313 11.9944C33.2367 9.00157 35.1742 9.62797 35.1742 9.62797C36.4427 12.76 35.6355 15.1728 35.4048 15.7528C36.904 17.4 37.7805 19.4647 37.7805 22.0399C37.7805 30.9023 32.3833 32.8511 27.2398 33.4311C28.0701 34.1503 28.8313 35.5655 28.8313 37.7231V44.0799C28.8313 44.7063 29.2003 45.4487 30.3766 45.2399C39.5335 42.1311 46.1301 33.4543 46.1301 23.1999C46.1301 20.1533 45.5335 17.1364 44.3743 14.3217C43.2152 11.507 41.5163 8.94942 39.3745 6.7951C37.2327 4.64079 34.69 2.9319 31.8916 1.76599C29.0933 0.600084 26.094 0 23.065 0Z" fill="#65B5FF"/>
</svg>
