<svg width="46" height="43" viewBox="0 0 46 43" fill="none" xmlns="http://www.w3.org/2000/svg">
<path d="M9.91728 5.02937C9.91665 6.28799 9.41607 7.49481 8.52564 8.38434C7.63522 9.27388 6.4279 9.77326 5.16928 9.77263C3.91066 9.772 2.70384 9.27141 1.81431 8.38099C0.924777 7.49057 0.425397 6.28325 0.426026 5.02463C0.426655 3.76601 0.927243 2.55919 1.81767 1.66966C2.70809 0.780124 3.91541 0.280743 5.17403 0.281373C6.43265 0.282002 7.63946 0.78259 8.529 1.67301C9.41853 2.56344 9.91791 3.77075 9.91728 5.02937ZM10.0597 13.2868H0.568395V42.9944H10.0597V13.2868ZM25.0558 13.2868H15.612V42.9944H24.9609V27.405C24.9609 18.7205 36.2792 17.9138 36.2792 27.405V42.9944H45.6519V24.178C45.6519 9.53772 28.8998 10.0835 24.9609 17.2731L25.0558 13.2868Z" fill="#65B5FF"/>
</svg>
