<svg width="34" height="18" viewBox="0 0 34 18" fill="none" xmlns="http://www.w3.org/2000/svg">
<path d="M17 14.9237L2.17265 0.37371C2.05316 0.253917 1.9113 0.159212 1.75528 0.095073C1.59925 0.030934 1.43216 -0.00136662 1.26368 4.48907e-05C1.0952 0.0014564 0.928663 0.0365507 0.773717 0.103295C0.618771 0.170039 0.478489 0.267108 0.360989 0.388886C0.243489 0.510665 0.151104 0.654732 0.0891806 0.812754C0.0272568 0.970776 -0.00297636 1.13962 0.000230899 1.3095C0.00343816 1.47938 0.0400221 1.64694 0.107866 1.80247C0.175709 1.958 0.273465 2.09841 0.395476 2.21559L16.1114 17.636C16.3493 17.8694 16.6681 18 17 18C17.3319 18 17.6507 17.8694 17.8886 17.636L33.6045 2.21559C33.7265 2.09841 33.8243 1.958 33.8921 1.80247C33.96 1.64694 33.9966 1.47938 33.9998 1.3095C34.003 1.13962 33.9727 0.970776 33.9108 0.812754C33.8489 0.654732 33.7565 0.510665 33.639 0.388886C33.5215 0.267108 33.3812 0.170039 33.2263 0.103295C33.0713 0.0365507 32.9048 0.0014564 32.7363 4.48907e-05C32.5678 -0.00136662 32.4007 0.030934 32.2447 0.095073C32.0887 0.159212 31.9468 0.253917 31.8273 0.37371L17 14.9237Z" fill="#65B5FF"/>
</svg>
