<svg width="70" height="70" viewBox="0 0 70 70" fill="none" xmlns="http://www.w3.org/2000/svg">
<path d="M35.0001 5.83337H25.2789C22.7002 5.83337 20.2272 6.85773 18.4039 8.68109C16.5805 10.5045 15.5562 12.9775 15.5562 15.5561C15.5562 18.1347 16.5805 20.6077 18.4039 22.4311C20.2272 24.2544 22.7002 25.2788 25.2789 25.2788H35.0001V5.83337Z" stroke="#C9E8FF" stroke-width="4.375"/>
<path d="M35.0001 25.2759H25.2789C22.7002 25.2759 20.2272 26.3002 18.4039 28.1236C16.5805 29.947 15.5562 32.42 15.5562 34.9986C15.5562 37.5772 16.5805 40.0502 18.4039 41.8736C20.2272 43.6969 22.7002 44.7213 25.2789 44.7213H35.0001V25.2759Z" stroke="#C9E8FF" stroke-width="4.375"/>
<path d="M54.4455 35.0001C54.4455 37.5787 53.4212 40.0517 51.5978 41.875C49.7745 43.6984 47.3015 44.7228 44.7228 44.7228C42.1442 44.7228 39.6712 43.6984 37.8478 41.875C36.0245 40.0517 35.0001 37.5787 35.0001 35.0001C35.0001 32.4214 36.0245 29.9484 37.8478 28.1251C39.6712 26.3017 42.1442 25.2773 44.7228 25.2773C47.3015 25.2773 49.7745 26.3017 51.5978 28.1251C53.4212 29.9484 54.4455 32.4214 54.4455 35.0001ZM25.2789 44.7242H35.0001V54.4455C34.9995 56.368 34.4289 58.2472 33.3604 59.8455C32.2918 61.4438 30.7734 62.6893 28.997 63.4247C27.2206 64.16 25.2661 64.3521 23.3806 63.9767C21.495 63.6012 19.7631 62.6751 18.4039 61.3155C17.0446 59.9558 16.1191 58.2237 15.7442 56.338C15.3693 54.4523 15.562 52.4979 16.2979 50.7217C17.0338 48.9456 18.2797 47.4275 19.8783 46.3594C21.4769 45.2914 23.3563 44.7242 25.2789 44.7242Z" stroke="#C9E8FF" stroke-width="4.375"/>
<path d="M35 5.83337H44.7213C47.2999 5.83337 49.7729 6.85773 51.5962 8.68109C53.4196 10.5045 54.444 12.9775 54.444 15.5561C54.444 18.1347 53.4196 20.6077 51.5962 22.4311C49.7729 24.2544 47.2999 25.2788 44.7213 25.2788H35V5.83337Z" stroke="#C9E8FF" stroke-width="4.375"/>
</svg>
