<svg width="70" height="70" viewBox="0 0 70 70" fill="none" xmlns="http://www.w3.org/2000/svg">
<path d="M30.0533 3.98531L3.98531 30.0486L7.28464 33.348L33.348 7.28464L30.0533 3.98531ZM3.98531 39.9466L30.0486 66.0146L33.348 62.7106L7.28464 36.6473L3.98531 39.9466ZM39.9513 66.01L66.0146 39.9513L62.7153 36.6473L36.652 62.7106L39.9513 66.01ZM66.0146 30.044L39.9513 3.98531L36.652 7.28464L62.7153 33.348L66.0146 30.0486V30.044ZM66.0146 39.9513C66.6651 39.3012 67.1811 38.5247 67.5332 37.6751C67.8853 36.8256 68.0665 35.9149 68.0665 34.9953C68.0665 34.0757 67.8853 33.1651 67.5332 32.3155C67.1811 31.4659 66.6651 30.694 66.0146 30.044L62.7153 33.3433C62.9326 33.5601 63.105 33.8175 63.2226 34.101C63.3403 34.3845 63.4008 34.6884 63.4008 34.9953C63.4008 35.3022 63.3403 35.6061 63.2226 35.8896C63.105 36.1731 62.9326 36.4306 62.7153 36.6473L66.0146 39.9513ZM30.0486 66.0146C30.6987 66.6651 31.4753 67.1811 32.3248 67.5332C33.1744 67.8853 34.085 68.0665 35.0046 68.0665C35.9243 68.0665 36.8349 67.8853 37.6845 67.5332C38.534 67.1811 39.3059 66.6651 39.956 66.0146L36.652 62.7153C36.4352 62.9326 36.1824 63.105 35.8989 63.2226C35.6155 63.3403 35.3116 63.4008 35.0046 63.4008C34.6977 63.4008 34.3938 63.3403 34.1104 63.2226C33.8269 63.105 33.5694 62.9326 33.3526 62.7153L30.0486 66.0146ZM3.98531 30.0486C3.33483 30.6987 2.81881 31.4753 2.46674 32.3248C2.11468 33.1744 1.93347 34.085 1.93347 35.0046C1.93347 35.9243 2.11468 36.8349 2.46674 37.6845C2.81881 38.534 3.33483 39.3059 3.98531 39.956L7.28464 36.652C7.06735 36.4352 6.89495 36.1824 6.77732 35.8989C6.65969 35.6155 6.59914 35.3116 6.59914 35.0046C6.59914 34.6977 6.65969 34.3938 6.77732 34.1104C6.89495 33.8269 7.06735 33.5647 7.28464 33.348L3.98531 30.0486ZM33.348 7.28931C33.5647 7.07202 33.8222 6.89962 34.1057 6.78199C34.3892 6.66436 34.6931 6.60381 35 6.60381C35.3069 6.60381 35.6108 6.66436 35.8943 6.78199C36.1777 6.89962 36.4352 7.07202 36.652 7.28931L39.9513 3.98531C39.3012 3.33483 38.5247 2.81881 37.6751 2.46674C36.8256 2.11468 35.9149 1.93347 34.9953 1.93347C34.0757 1.93347 33.1651 2.11468 32.3155 2.46674C31.4659 2.81881 30.694 3.33483 30.044 3.98531L33.3433 7.28464L33.348 7.28931ZM24.0146 13.3233L28.6813 17.99L31.9853 14.686L27.3186 10.0193L24.0146 13.3233ZM35 23.3333C34.3811 23.3333 33.7876 23.0875 33.3501 22.6499C32.9125 22.2123 32.6666 21.6188 32.6666 21H28C28 22.8565 28.7375 24.637 30.0502 25.9497C31.363 27.2625 33.1435 28 35 28V23.3333ZM37.3333 21C37.3333 21.6188 37.0875 22.2123 36.6499 22.6499C36.2123 23.0875 35.6188 23.3333 35 23.3333V28C36.8565 28 38.637 27.2625 39.9497 25.9497C41.2625 24.637 42 22.8565 42 21H37.3333ZM35 18.6666C35.6188 18.6666 36.2123 18.9125 36.6499 19.3501C37.0875 19.7876 37.3333 20.3811 37.3333 21H42C42 19.1435 41.2625 17.363 39.9497 16.0502C38.637 14.7375 36.8565 14 35 14V18.6666ZM35 14C33.1435 14 31.363 14.7375 30.0502 16.0502C28.7375 17.363 28 19.1435 28 21H32.6666C32.6666 20.3811 32.9125 19.7876 33.3501 19.3501C33.7876 18.9125 34.3811 18.6666 35 18.6666V14ZM38.0146 27.3186L45.0146 34.3186L48.314 31.0146L41.314 24.0146L38.0146 27.3186ZM49 37.3333C48.3811 37.3333 47.7876 37.0875 47.3501 36.6499C46.9125 36.2123 46.6666 35.6188 46.6666 35H42C42 36.8565 42.7375 38.637 44.0502 39.9497C45.363 41.2625 47.1435 42 49 42V37.3333ZM51.3333 35C51.3333 35.6188 51.0875 36.2123 50.6499 36.6499C50.2123 37.0875 49.6188 37.3333 49 37.3333V42C50.8565 42 52.637 41.2625 53.9497 39.9497C55.2625 38.637 56 36.8565 56 35H51.3333ZM49 32.6666C49.6188 32.6666 50.2123 32.9125 50.6499 33.3501C51.0875 33.7876 51.3333 34.3811 51.3333 35H56C56 33.1435 55.2625 31.363 53.9497 30.0502C52.637 28.7375 50.8565 28 49 28V32.6666ZM49 28C47.1435 28 45.363 28.7375 44.0502 30.0502C42.7375 31.363 42 33.1435 42 35H46.6666C46.6666 34.3811 46.9125 33.7876 47.3501 33.3501C47.7876 32.9125 48.3811 32.6666 49 32.6666V28ZM32.6666 25.6666V44.3333H37.3333V25.6666H32.6666ZM35 51.3333C34.3811 51.3333 33.7876 51.0875 33.3501 50.6499C32.9125 50.2123 32.6666 49.6188 32.6666 49H28C28 50.8565 28.7375 52.637 30.0502 53.9497C31.363 55.2625 33.1435 56 35 56V51.3333ZM37.3333 49C37.3333 49.6188 37.0875 50.2123 36.6499 50.6499C36.2123 51.0875 35.6188 51.3333 35 51.3333V56C36.8565 56 38.637 55.2625 39.9497 53.9497C41.2625 52.637 42 50.8565 42 49H37.3333ZM35 46.6666C35.6188 46.6666 36.2123 46.9125 36.6499 47.3501C37.0875 47.7876 37.3333 48.3811 37.3333 49H42C42 47.1435 41.2625 45.363 39.9497 44.0502C38.637 42.7375 36.8565 42 35 42V46.6666ZM35 42C33.1435 42 31.363 42.7375 30.0502 44.0502C28.7375 45.363 28 47.1435 28 49H32.6666C32.6666 48.3811 32.9125 47.7876 33.3501 47.3501C33.7876 46.9125 34.3811 46.6666 35 46.6666V42Z" fill="#C9E8FF"/>
</svg>
