<svg width="70" height="70" viewBox="0 0 70 70" fill="none" xmlns="http://www.w3.org/2000/svg">
<path d="M4.375 4.375V65.625H65.625V4.375H4.375ZM37.7081 52.1434C37.7081 58.1044 34.2081 60.8256 29.1091 60.8256C24.5022 60.8256 21.8356 58.4478 20.4684 55.5625L25.1584 52.7319C26.0619 54.3309 26.8822 55.685 28.8641 55.685C30.7497 55.685 31.9528 54.9456 31.9528 52.0625V32.4975H37.7081V52.1434ZM51.3231 60.8256C45.9769 60.8256 42.5184 58.2838 40.8363 54.9456L45.5262 52.2397C46.7578 54.25 48.37 55.7397 51.2006 55.7397C53.5784 55.7397 55.1119 54.5497 55.1119 52.8959C55.1119 50.9272 53.5522 50.2294 50.9141 49.0678L49.4791 48.4531C45.3228 46.69 42.5753 44.4609 42.5753 39.7709C42.5753 35.4506 45.8697 32.1694 50.9972 32.1694C54.6613 32.1694 57.2863 33.4403 59.1741 36.7762L54.6897 39.6484C53.7053 37.8853 52.6378 37.1875 50.9841 37.1875C49.3041 37.1875 48.2366 38.255 48.2366 39.6484C48.2366 41.3722 49.3041 42.0678 51.7781 43.1484L53.2131 43.7631C58.1088 45.8544 60.8563 48.0025 60.8563 52.8128C60.8563 57.9819 56.7809 60.8234 51.3253 60.8234L51.3231 60.8256Z" fill="#C9E8FF"/>
</svg>
