<svg width="86" height="85" viewBox="0 0 86 85" fill="none" xmlns="http://www.w3.org/2000/svg">
<path d="M77.3541 23.1271C77.3895 23.1979 77.3895 23.3042 77.3895 23.4104V38.6042C77.3895 38.9584 77.177 39.3834 76.8583 39.5604L64.0729 46.9271V61.4834C64.0729 61.8729 63.8958 62.2271 63.5416 62.4396L36.9083 77.775C36.8375 77.8104 36.7666 77.9167 36.6958 77.9167H35.9166C35.9166 77.9167 35.9166 77.8104 35.775 77.775L9.14162 62.4396C8.97841 62.3393 8.84379 62.1986 8.75075 62.0311C8.6577 61.8636 8.60935 61.675 8.61037 61.4834V15.9375C8.61037 15.7604 8.61037 15.6542 8.64578 15.5834C8.64578 15.5479 8.6812 15.5125 8.6812 15.4771C8.6812 15.4063 8.71662 15.3709 8.75203 15.3C8.75203 15.2646 8.78745 15.2292 8.82287 15.1938L8.92912 15.0875L9.03537 14.9813C9.07078 14.9459 9.1062 14.9104 9.14162 14.9104L22.4583 7.22502C22.8125 7.08336 23.2375 7.08336 23.5208 7.22502L36.9083 14.9104C36.9437 14.9459 36.9791 14.9459 37.0145 14.9813L37.1208 15.0875L37.227 15.1938C37.2625 15.2292 37.2979 15.2646 37.2979 15.3C37.3333 15.3709 37.3687 15.4063 37.3687 15.4771C37.3687 15.5125 37.4041 15.5479 37.4041 15.5834C37.4395 15.6896 37.4395 15.7604 37.4395 15.9375V44.2709L48.5604 37.9667V23.4104C48.5604 23.3042 48.5604 23.1979 48.5958 23.1271L48.6312 23.0209C48.6312 23.0209 48.6666 22.9146 48.702 22.8438C48.702 22.8084 48.7375 22.7729 48.7729 22.7375L48.8791 22.6313L48.9854 22.525C49.0208 22.4896 49.0562 22.4542 49.0916 22.4542L62.4791 14.7688C62.7625 14.5563 63.1875 14.5563 63.5416 14.7688L76.8583 22.4542C76.8937 22.4542 76.9291 22.4896 76.9645 22.525L77.0708 22.6313L77.177 22.7375C77.2125 22.7729 77.2125 22.8084 77.2479 22.8438C77.2833 22.9146 77.2833 23.0209 77.3187 23.0209C77.3541 23.0209 77.3541 23.0209 77.3541 23.1271ZM75.1937 37.9667V25.3229L64.0729 31.6979V44.2709L75.1937 37.9667ZM61.877 60.8459V48.1667L37.4395 62.1209V74.9063L61.877 60.8459ZM10.8062 17.7084V60.8459L35.2437 74.9063V62.1209L22.4937 54.8959H22.4583C22.4229 54.8959 22.3875 54.8959 22.352 54.7896C22.3166 54.7896 22.2812 54.7542 22.2458 54.7188L22.1395 54.6125C22.1041 54.5771 22.1041 54.5417 22.0687 54.5063C22.0333 54.4354 22.0333 54.4 21.9979 54.3646C21.9979 54.2938 21.9625 54.2584 21.9625 54.2229C21.927 54.1875 21.927 54.1167 21.927 54.0813V24.1542L10.8062 17.7084ZM23.025 9.49169L11.9395 15.9375L23.025 22.2417L34.1458 15.9375L23.025 9.49169ZM35.2437 45.6167V17.7084L24.1229 24.1542V52.0271L35.2437 45.6167ZM62.975 17L51.8541 23.4104L62.975 29.7854L74.0604 23.4104L62.975 17ZM61.877 31.6979L50.7562 25.3229V37.9667L61.877 44.2709V31.6979ZM36.3416 60.2084L60.7083 46.2542L49.6583 39.8792L25.2916 53.9396L36.3416 60.2084Z" fill="#C9E8FF"/>
</svg>
