<svg width="70" height="70" viewBox="0 0 70 70" fill="none" xmlns="http://www.w3.org/2000/svg">
<path d="M63.2917 19.0459C63.3209 19.1042 63.3209 19.1917 63.3209 19.2792V31.7917C63.3209 32.0834 63.1459 32.4334 62.8834 32.5792L52.3542 38.6459V50.6334C52.3542 50.9542 52.2084 51.2459 51.9167 51.4209L29.9834 64.05C29.925 64.0792 29.8667 64.1667 29.8084 64.1667H29.1667C29.1667 64.1667 29.1667 64.0792 29.05 64.05L7.11671 51.4209C6.9823 51.3382 6.87145 51.2224 6.79482 51.0844C6.71819 50.9465 6.67838 50.7912 6.67921 50.6334V13.125C6.67921 12.9792 6.67921 12.8917 6.70838 12.8334C6.70838 12.8042 6.73755 12.775 6.73755 12.7459C6.73755 12.6875 6.76671 12.6584 6.79588 12.6C6.79588 12.5709 6.82505 12.5417 6.85421 12.5125L6.94171 12.425L7.02921 12.3375C7.05838 12.3084 7.08755 12.2792 7.11671 12.2792L18.0834 5.95005C18.375 5.83338 18.725 5.83338 18.9584 5.95005L29.9834 12.2792C30.0125 12.3084 30.0417 12.3084 30.0709 12.3375L30.1584 12.425L30.2459 12.5125C30.275 12.5417 30.3042 12.5709 30.3042 12.6C30.3334 12.6584 30.3625 12.6875 30.3625 12.7459C30.3625 12.775 30.3917 12.8042 30.3917 12.8334C30.4209 12.9209 30.4209 12.9792 30.4209 13.125V36.4584L39.5792 31.2667V19.2792C39.5792 19.1917 39.5792 19.1042 39.6084 19.0459L39.6375 18.9584C39.6375 18.9584 39.6667 18.8709 39.6959 18.8125C39.6959 18.7834 39.725 18.7542 39.7542 18.7251L39.8417 18.6375L39.9292 18.5501C39.9584 18.5209 39.9875 18.4917 40.0167 18.4917L51.0417 12.1625C51.275 11.9875 51.625 11.9875 51.9167 12.1625L62.8834 18.4917C62.9125 18.4917 62.9417 18.5209 62.9709 18.5501L63.0584 18.6375L63.1459 18.7251C63.175 18.7542 63.175 18.7834 63.2042 18.8125C63.2334 18.8709 63.2334 18.9584 63.2625 18.9584C63.2917 18.9584 63.2917 18.9584 63.2917 19.0459ZM61.5125 31.2667V20.8542L52.3542 26.1042V36.4584L61.5125 31.2667ZM50.5459 50.1084V39.6667L30.4209 51.1584V61.6875L50.5459 50.1084ZM8.48755 14.5834V50.1084L28.6125 61.6875V51.1584L18.1125 45.2084H18.0834C18.0542 45.2084 18.025 45.2084 17.9959 45.1209C17.9667 45.1209 17.9375 45.0917 17.9084 45.0625L17.8209 44.975C17.7917 44.9459 17.7917 44.9167 17.7625 44.8876C17.7334 44.8292 17.7334 44.8001 17.7042 44.7709C17.7042 44.7126 17.675 44.6834 17.675 44.6542C17.6459 44.6251 17.6459 44.5667 17.6459 44.5376V19.8917L8.48755 14.5834ZM18.55 7.81672L9.42088 13.125L18.55 18.3167L27.7084 13.125L18.55 7.81672ZM28.6125 37.5667V14.5834L19.4542 19.8917V42.8459L28.6125 37.5667ZM51.45 14L42.2917 19.2792L51.45 24.5292L60.5792 19.2792L51.45 14ZM50.5459 26.1042L41.3875 20.8542V31.2667L50.5459 36.4584V26.1042ZM29.5167 49.5834L49.5834 38.0917L40.4834 32.8417L20.4167 44.4209L29.5167 49.5834Z" fill="#C9E8FF"/>
</svg>
