<svg width="70" height="70" viewBox="0 0 70 70" fill="none" xmlns="http://www.w3.org/2000/svg">
<g clip-path="url(#clip0_80_160)">
<path d="M21 21L22.89 19.6327C22.6009 19.2333 22.1927 18.9358 21.7241 18.7829C21.2554 18.6299 20.7503 18.6293 20.2813 18.7811C19.8123 18.933 19.4034 19.2295 19.1133 19.6281C18.8232 20.0267 18.6669 20.507 18.6667 21H21ZM35 65.3333C26.9551 65.3333 19.2397 62.1375 13.5511 56.4489C7.86249 50.7603 4.66667 43.0449 4.66667 35H0C0 44.2826 3.68749 53.185 10.2513 59.7487C16.815 66.3125 25.7174 70 35 70V65.3333ZM65.3333 35C65.3333 38.9834 64.5487 42.9279 63.0243 46.6081C61.4999 50.2883 59.2656 53.6322 56.4489 56.4489C53.6322 59.2656 50.2883 61.4999 46.6081 63.0243C42.9279 64.5487 38.9834 65.3333 35 65.3333V70C44.2826 70 53.185 66.3125 59.7487 59.7487C66.3125 53.185 70 44.2826 70 35H65.3333ZM35 4.66667C38.9834 4.66667 42.9279 5.45126 46.6081 6.97565C50.2883 8.50005 53.6322 10.7344 56.4489 13.5511C59.2656 16.3678 61.4999 19.7117 63.0243 23.3919C64.5487 27.0721 65.3333 31.0166 65.3333 35H70C70 25.7174 66.3125 16.815 59.7487 10.2513C53.185 3.68749 44.2826 0 35 0V4.66667ZM35 0C25.7174 0 16.815 3.68749 10.2513 10.2513C3.68749 16.815 0 25.7174 0 35H4.66667C4.66667 26.9551 7.86249 19.2397 13.5511 13.5511C19.2397 7.86249 26.9551 4.66667 35 4.66667V0ZM23.3333 56V21H18.6667V56H23.3333ZM19.11 22.3673L49.4433 64.3673L53.2233 61.6327L22.89 19.6327L19.11 22.3673ZM46.6667 18.6667V46.6667H51.3333V18.6667H46.6667Z" fill="#C9E8FF"/>
</g>
<defs>
<clipPath id="clip0_80_160">
<rect width="70" height="70" fill="white"/>
</clipPath>
</defs>
</svg>
