<svg width="70" height="70" viewBox="0 0 70 70" fill="none" xmlns="http://www.w3.org/2000/svg">
<g clip-path="url(#clip0_80_139)">
<path d="M34.7055 70C33.7663 70 32.8388 69.755 32.0134 69.2795L23.453 64.2104C22.1725 63.4958 22.7967 63.242 23.2196 63.0962C24.923 62.5012 25.27 62.367 27.09 61.3316C27.2825 61.2237 27.5334 61.2616 27.7288 61.3754L34.3059 65.2808C34.429 65.3442 34.5655 65.3773 34.704 65.3773C34.8425 65.3773 34.979 65.3442 35.1021 65.2808L60.7513 50.4729C60.8704 50.4011 60.969 50.2997 61.0375 50.1786C61.106 50.0575 61.142 49.9208 61.1421 49.7816V20.1804C61.1425 20.0385 61.1062 19.899 61.0367 19.7753C60.9672 19.6516 60.8668 19.548 60.7455 19.4745L35.108 4.68121C34.9879 4.61155 34.8516 4.57486 34.7127 4.57486C34.5739 4.57486 34.4376 4.61155 34.3175 4.68121L8.68004 19.4745C8.55749 19.546 8.45566 19.6481 8.38457 19.7708C8.31349 19.8936 8.27559 20.0327 8.27462 20.1745V49.7729C8.27462 50.0558 8.42921 50.327 8.67421 50.4612L15.6975 54.5183C19.5125 56.4258 21.843 54.18 21.843 51.9195V22.7062C21.8414 22.6082 21.8595 22.511 21.8964 22.4202C21.9332 22.3294 21.988 22.2469 22.0574 22.1778C22.1269 22.1086 22.2095 22.0542 22.3004 22.0177C22.3914 21.9812 22.4887 21.9634 22.5867 21.9654H25.8359C26.2413 21.9654 26.5738 22.2862 26.5738 22.7062V51.9312C26.5738 57.0179 23.803 59.9375 18.9788 59.9375C17.4942 59.9375 16.3246 59.9375 13.0638 58.3333L6.33504 54.4541C5.51716 53.9765 4.83858 53.293 4.3668 52.4718C3.89501 51.6505 3.64647 50.72 3.64587 49.7729V20.1745C3.64587 18.2495 4.67254 16.45 6.33504 15.502L32.0134 0.688295C32.8403 0.236439 33.7675 -0.000366211 34.7098 -0.000366211C35.6522 -0.000366211 36.5794 0.236439 37.4063 0.688295L63.0496 15.505C64.7063 16.4645 65.7388 18.2554 65.7388 20.1804V49.7816C65.7367 50.7273 65.4874 51.656 65.0157 52.4756C64.544 53.2952 63.8662 53.9772 63.0496 54.4541L37.4063 69.2679C36.5839 69.7408 35.6512 69.9883 34.7025 69.9854V70H34.7055ZM42.6271 49.6037C31.4038 49.6037 29.053 44.4529 29.053 40.1304C29.053 39.722 29.3825 39.3925 29.7938 39.3925H33.1071C33.4746 39.3925 33.7809 39.6579 33.8392 40.0195C34.3409 43.397 35.8313 45.1004 42.6184 45.1004C48.023 45.1004 50.3213 43.8783 50.3213 41.0112C50.3213 39.3604 49.665 38.1354 41.268 37.3129C34.2446 36.6187 29.9046 35.0729 29.9046 29.4554C29.9046 24.2783 34.2709 21.1983 41.583 21.1983C49.7934 21.1983 53.865 24.0479 54.3784 30.1729C54.3873 30.2759 54.3746 30.3797 54.3413 30.4777C54.308 30.5756 54.2546 30.6655 54.1847 30.7418C54.1148 30.818 54.0298 30.8789 53.9351 30.9205C53.8404 30.9622 53.7381 30.9837 53.6346 30.9837H50.3009C50.133 30.9835 49.9702 30.9257 49.8397 30.8201C49.7091 30.7146 49.6187 30.5674 49.5834 30.4033C48.7813 26.8537 46.8417 25.7162 41.5713 25.7162C35.6709 25.7162 34.9825 27.7725 34.9825 29.3125C34.9825 31.1791 35.7905 31.7275 43.753 32.7804C51.6367 33.8275 55.3817 35.3033 55.3817 40.845C55.3817 46.4304 50.718 49.6358 42.5921 49.6358L42.6271 49.6037Z" fill="#C9E8FF"/>
</g>
<defs>
<clipPath id="clip0_80_139">
<rect width="70" height="70" fill="white"/>
</clipPath>
</defs>
</svg>
