<svg width="70" height="70" viewBox="0 0 70 70" fill="none" xmlns="http://www.w3.org/2000/svg">
<path d="M68.7167 42.9421C68.6763 42.8189 68.6204 42.7013 68.5504 42.5921C68.145 41.828 67.1592 41.5975 65.6134 41.9184C60.7892 42.91 58.9225 42.2975 58.2459 41.86C62.16 35.8867 65.3771 28.6709 67.1154 21.9392C67.9088 18.8767 69.4429 11.6638 67.4713 8.14338C67.3463 7.90133 67.1999 7.67097 67.0338 7.45505C63.2684 2.65421 57.75 0.0729636 51.0709 0.00296355C46.7104 -0.0437031 42.9917 1.01213 41.9825 1.40005C41.4832 1.30647 40.9813 1.22671 40.4775 1.16088C39.2143 0.93293 37.9344 0.809042 36.6509 0.790464C33.2034 0.735047 30.2254 1.56046 27.755 3.24046C25.2584 2.30421 13.7929 -1.55745 6.6967 3.47088C2.72711 6.27963 0.90128 11.2963 1.2542 18.3867C1.37378 20.7725 2.73295 28.1109 4.87961 35.14C6.22128 39.5325 7.61545 43.0209 9.0592 45.5875C10.6721 48.4867 12.3434 50.2338 14.0584 50.8084C15.365 51.24 17.3629 51.2255 19.4775 48.6821C21.3118 46.4881 23.2035 44.3426 25.1504 42.248C26.4192 42.9334 27.7929 43.3038 29.2046 43.3475C29.2045 43.3514 29.2045 43.3553 29.2046 43.3592C28.9592 43.6514 28.719 43.948 28.4842 44.2488C27.4954 45.503 27.2884 45.7655 24.1092 46.4217C23.205 46.6084 20.8017 47.1013 20.7667 48.7871C20.76 49.1242 20.8523 49.4558 21.0321 49.7409C21.6942 50.9746 23.7213 51.52 23.9925 51.5871C27.8863 52.5584 31.2988 51.8555 33.8275 49.6067C33.7779 56.1138 34.0521 62.4925 34.8338 64.4467C35.4784 66.0596 37.0563 70 42.0379 70C42.7671 70 43.5721 69.9125 44.4559 69.7259C49.6534 68.6117 51.9109 66.3134 52.7829 61.25C53.2204 58.7125 53.9554 52.8646 54.355 49.2888C54.4046 49.0846 54.46 48.9388 54.5213 48.8921C54.5213 48.8921 54.7254 48.7521 55.7667 48.9796C55.809 48.989 55.8519 48.9958 55.895 49L56.6359 49.0642L56.6796 49.0671C59.15 49.1809 62.2534 48.653 64.0617 47.813C65.94 46.938 69.3321 44.8 68.7167 42.9421ZM6.91253 34.6384C4.74253 27.5363 3.4767 20.3905 3.37753 18.3896C3.05961 12.0546 4.59378 7.64755 7.93336 5.28505C13.2913 1.4963 22.05 3.71005 25.7484 4.90588L25.7192 4.93505C19.8188 10.8909 19.9588 21.0759 19.9792 21.7C19.9792 21.9392 19.9967 22.2805 20.0259 22.75C20.125 24.4592 20.3175 27.65 19.81 31.2609C19.3434 34.615 20.3759 37.8992 22.6479 40.2705C22.8813 40.5155 23.1292 40.7459 23.3829 40.9617C22.3709 42.0438 20.1746 44.4413 17.8325 47.2559C16.1759 49.245 15.0325 48.863 14.6592 48.7375C13.5159 48.3584 12.2879 47.0255 11.0454 44.8817C9.64545 42.4346 8.2367 38.955 6.91836 34.6384H6.91253ZM24.4329 49.4784C23.9901 49.3669 23.5658 49.192 23.1729 48.9592C23.4325 48.8455 23.8642 48.6967 24.5817 48.5509C28.3267 47.778 28.9042 47.2355 30.1671 45.6342C30.5073 45.19 30.8644 44.759 31.2375 44.3421C31.3356 44.2325 31.4092 44.1032 31.4534 43.963C31.9492 43.5225 32.2467 43.6421 32.725 43.8405C33.18 44.03 33.6234 44.5988 33.8042 45.2259C33.8917 45.5234 33.985 46.0863 33.6729 46.5238C31.0363 50.2163 27.1921 50.1696 24.4329 49.4784ZM30.5404 37.8467L30.3888 38.255C30.0009 39.2963 29.6392 40.2646 29.4146 41.1834C27.4692 41.1775 25.5734 40.3434 24.1354 38.8413C22.3038 36.9309 21.4725 34.2738 21.8517 31.5496C22.3854 27.7346 22.19 24.4125 22.085 22.6275L22.0471 21.9859C22.9104 21.2217 26.9063 19.0809 29.7559 19.7342C31.0567 20.0317 31.85 20.9184 32.1767 22.4409C33.8829 30.3275 32.4042 33.6117 31.2142 36.2542C30.9727 36.7774 30.749 37.3085 30.5434 37.8467H30.5404ZM52.0188 51.1817C51.9692 51.698 51.9138 52.2784 51.8379 52.92L51.4121 54.1975C51.3784 54.2992 51.3607 54.4055 51.3596 54.5125C51.3421 55.898 51.2021 56.4055 51.0242 57.05C50.7346 58.0548 50.5585 59.0889 50.4992 60.133C50.1784 64.2571 47.9384 66.6284 43.4496 67.588C39.0309 68.5359 38.2463 66.1413 37.5579 64.0267C37.4861 63.8047 37.4103 63.5839 37.3304 63.3646C36.7034 61.6555 36.7763 59.2463 36.8725 55.9125C36.9192 54.2763 36.7996 50.368 35.91 48.195C35.9217 47.3405 35.9392 46.4713 35.9654 45.5934C35.9679 45.4817 35.9521 45.3704 35.9188 45.2638C35.8905 45.0588 35.8476 44.856 35.7904 44.6571C35.4346 43.4088 34.5654 42.3646 33.5154 41.93C33.1013 41.758 32.34 41.443 31.4242 41.6763C31.6196 40.8713 31.9579 39.9642 32.3254 38.9784L32.48 38.5642C32.655 38.0975 32.8709 37.6163 33.1013 37.1059C34.3438 34.3409 36.0471 30.555 34.1979 22.0034C33.5067 18.8009 31.1938 17.2375 27.6879 17.5992C25.5879 17.818 23.6629 18.6667 22.7034 19.1509C22.5108 19.2483 22.3203 19.3494 22.1317 19.4542C22.4 16.2284 23.4121 10.1967 27.195 6.38171C27.4758 6.09856 27.7707 5.82988 28.0788 5.57671C28.2321 5.54735 28.3767 5.48352 28.5017 5.39005C30.695 3.72755 33.4454 2.91088 36.6742 2.96046C37.87 2.98088 39.0134 3.05963 40.0984 3.19671C45.7567 4.23213 49.56 7.41713 51.87 10.1471C54.2442 12.953 55.5304 15.7792 56.0438 17.3046C52.185 16.9138 49.56 17.675 48.2271 19.5796C45.3338 23.7155 49.8138 31.748 51.9663 35.6096C52.36 36.3155 52.7013 36.928 52.8092 37.1846C53.5092 38.885 54.4163 40.0196 55.0784 40.848C55.2825 41.1017 55.4809 41.3467 55.6296 41.5625C54.4629 41.9009 52.3629 42.6796 52.5525 46.5705C52.4801 47.3637 52.3984 48.1562 52.3075 48.9475C52.1734 49.5542 52.1063 50.2892 52.0188 51.1817ZM54.6146 46.4538C54.4979 44.0271 55.4021 43.7734 56.3559 43.508C56.4881 43.4713 56.6194 43.4315 56.7496 43.3884C56.8727 43.4976 57.0033 43.598 57.1404 43.6888C58.8029 44.7855 61.7575 44.9167 65.9109 44.0796C65.3217 44.5959 64.3971 45.2463 63.1313 45.8325C61.9354 46.3867 59.9346 46.8038 58.0359 46.8942C55.9359 46.9934 54.8684 46.6609 54.6146 46.4538ZM56.2771 19.4134C56.2428 20.3925 56.1405 21.368 55.9709 22.333C55.8104 23.3771 55.6442 24.4563 55.6004 25.7659C55.5596 27.0375 55.7171 28.3617 55.8717 29.645C56.1838 32.2321 56.5017 34.895 55.2679 37.523C55.0626 37.1601 54.8795 36.7851 54.7196 36.4C54.4314 35.7859 54.1151 35.1854 53.7717 34.6005C51.975 31.3805 47.7721 23.838 49.9217 20.7638C51.03 19.18 53.8359 19.113 56.2771 19.4134ZM56.9421 39.868C56.86 39.7635 56.7774 39.6595 56.6942 39.5559L56.5921 39.4275C58.7096 35.9275 58.2954 32.4655 57.925 29.3971C57.7734 28.1371 57.6334 26.9471 57.6684 25.833C57.7063 24.6459 57.8609 23.6309 58.0125 22.648C58.1992 21.4375 58.3917 20.1863 58.3363 18.7105C58.3795 18.5291 58.3914 18.3417 58.3713 18.1563C58.2371 16.7388 56.6213 12.5038 53.3254 8.66838C51.1774 6.13695 48.5015 4.10613 45.4854 2.71838C47.4283 2.32106 49.409 2.13912 51.3917 2.17588C57.3767 2.31005 62.1104 4.55005 65.4617 8.83463C65.5332 8.92742 65.5985 9.02486 65.6571 9.1263C67.7659 13.0813 64.8492 27.4284 56.9421 39.868ZM31.2288 22.0296C31.1559 22.5546 30.3246 23.2634 29.4175 23.2634C29.3385 23.2631 29.2595 23.2572 29.1813 23.2459C28.589 23.142 28.06 22.8127 27.7054 22.3271C27.5713 22.1521 27.3554 21.808 27.3963 21.4959C27.4097 21.4089 27.4407 21.3255 27.4873 21.2508C27.5339 21.1761 27.5953 21.1116 27.6675 21.0613C28.0117 20.8017 28.6942 20.7055 29.4467 20.8105C30.3684 20.9388 31.3221 21.3734 31.2288 22.0296ZM54.3579 20.8309C54.39 21.0642 54.215 21.4142 53.9117 21.735C53.5976 22.0771 53.1792 22.3058 52.7217 22.3855C52.6492 22.3953 52.5761 22.4002 52.5029 22.4C51.6484 22.4 50.925 21.7175 50.8696 21.318C50.7996 20.8017 51.6396 20.4138 52.5029 20.2913C53.3721 20.1688 54.2879 20.3175 54.3579 20.8309Z" fill="#C9E8FF"/>
</svg>
