<svg width="70" height="70" viewBox="0 0 70 70" fill="none" xmlns="http://www.w3.org/2000/svg">
<g clip-path="url(#clip0_80_137)">
<path d="M28 11.6667H32.6667M21 18.6667V7.00004C21 5.76236 21.4917 4.57538 22.3669 3.70021C23.242 2.82504 24.429 2.33337 25.6667 2.33337H44.3334C45.571 2.33337 46.758 2.82504 47.6332 3.70021C48.5084 4.57538 49 5.76236 49 7.00004V30.3334C49 31.5711 48.5084 32.758 47.6332 33.6332C46.758 34.5084 45.571 35 44.3334 35H25.6667C24.429 35 23.242 35.4917 22.3669 36.3669C21.4917 37.242 21 38.429 21 39.6667V63C21 64.2377 21.4917 65.4247 22.3669 66.2999C23.242 67.175 24.429 67.6667 25.6667 67.6667H44.3334C45.571 67.6667 46.758 67.175 47.6332 66.2999C48.5084 65.4247 49 64.2377 49 63V51.3334M37.3334 21H7.00004C5.76236 21 4.57538 21.4917 3.70021 22.3669C2.82504 23.242 2.33337 24.429 2.33337 25.6667V49C2.33337 50.2377 2.82504 51.4247 3.70021 52.2999C4.57538 53.175 5.76236 53.6667 7.00004 53.6667H21M32.6667 49H63C64.2377 49 65.4247 48.5084 66.2999 47.6332C67.175 46.758 67.6667 45.571 67.6667 44.3334V21C67.6667 19.7624 67.175 18.5754 66.2999 17.7002C65.4247 16.825 64.2377 16.3334 63 16.3334H49M37.3334 58.3334H42" stroke="#C9E8FF" stroke-width="4.66667"/>
</g>
<defs>
<clipPath id="clip0_80_137">
<rect width="70" height="70" fill="white"/>
</clipPath>
</defs>
</svg>
