<svg width="70" height="70" viewBox="0 0 70 70" fill="none" xmlns="http://www.w3.org/2000/svg">
<path d="M32.3838 30.4441C31.4916 30.9592 30.7722 31.7274 30.3166 32.6514C29.861 33.5753 29.6896 34.6137 29.824 35.6351C29.9585 36.6565 30.3928 37.6151 31.072 38.3897C31.7513 39.1643 32.6449 39.7201 33.64 39.9868C34.6351 40.2535 35.6869 40.2192 36.6625 39.8881C37.6381 39.5571 38.4936 38.9442 39.1209 38.127C39.7482 37.3097 40.119 36.3248 40.1866 35.2968C40.2541 34.2688 40.0154 33.2439 39.5005 32.3516C39.1585 31.759 38.7031 31.2396 38.1604 30.823C37.6176 30.4064 36.9981 30.1008 36.3373 29.9236C35.6764 29.7465 34.9871 29.7013 34.3088 29.7906C33.6304 29.8799 32.9763 30.102 32.3838 30.4441ZM55.7317 36.0966C55.3895 35.7058 55.0288 35.3139 54.6496 34.9212C54.9141 34.6412 55.1707 34.3621 55.4196 34.0841C60.1009 28.8224 62.0784 23.5433 60.2467 20.3728C58.4909 17.3308 53.2671 16.4237 46.725 17.6953C46.0814 17.8217 45.4407 17.9637 44.803 18.1212C44.6805 17.7012 44.5511 17.2831 44.415 16.867C42.1955 10.1791 38.6109 5.83034 34.9475 5.83325C31.4359 5.83325 28.0409 9.90784 25.8738 16.2108C25.6599 16.833 25.4625 17.4591 25.2817 18.0891C24.8559 17.9841 24.4281 17.8869 23.9984 17.7974C17.0975 16.3828 11.5413 17.3162 9.71254 20.4924C7.95962 23.5345 9.79129 28.5133 14.1692 33.5358C14.6048 34.0316 15.052 34.5177 15.5109 34.9941C14.9684 35.5483 14.458 36.1053 13.9796 36.6595C9.70671 41.612 7.98004 46.5062 9.73004 49.5366C11.5384 52.6691 17.0159 53.6928 23.6863 52.3803C24.2268 52.2734 24.7645 52.1528 25.2992 52.0187C25.4936 52.7012 25.7085 53.3788 25.9438 54.0516C28.1021 60.2262 31.4767 64.1666 34.9767 64.1666C38.5934 64.1666 42.2159 59.9287 44.4121 53.4945C44.5871 52.987 44.7475 52.4591 44.905 51.9166C45.5953 52.0877 46.2905 52.2394 46.9905 52.3716C53.4159 53.5878 58.5171 52.6341 60.2642 49.6008C62.0696 46.4653 60.2059 41.2095 55.7317 36.0966ZM11.8709 21.7349C12.9967 19.7808 17.538 19.0166 23.4967 20.2416C23.8778 20.3194 24.2657 20.4069 24.6605 20.5041C24.078 23.0776 23.6668 25.687 23.4296 28.3149C21.2808 29.826 19.2319 31.4744 17.2959 33.2499C16.87 32.8085 16.4549 32.3565 16.0505 31.8937C12.2967 27.5945 10.815 23.5695 11.8709 21.7349ZM23.208 38.4416C21.7205 37.3128 20.335 36.1578 19.078 34.997C20.3321 33.842 21.7175 32.6928 23.205 31.567C23.1506 32.7123 23.1243 33.8585 23.1263 35.0058C23.1263 36.153 23.1535 37.2983 23.208 38.4416ZM23.208 49.9333C20.6798 50.4963 18.0697 50.5892 15.508 50.2074C14.8057 50.1525 14.1221 49.9541 13.4995 49.6245C12.8769 49.2949 12.3286 48.8411 11.8884 48.2912C10.8238 46.4537 12.2121 42.522 15.8667 38.287C16.3256 37.7562 16.8 37.239 17.29 36.7353C19.227 38.5218 21.2799 40.1782 23.4355 41.6937C23.675 44.3548 24.0901 46.9972 24.678 49.6037C24.1918 49.7262 23.7009 49.837 23.205 49.9362L23.208 49.9333ZM43.9163 26.4862C42.9382 25.8698 41.9485 25.2738 40.9471 24.6983C39.9593 24.1305 38.9609 23.5831 37.9517 23.0562C39.6108 22.3554 41.3036 21.7373 43.0238 21.2041C43.4099 22.9487 43.7078 24.7116 43.9163 26.4862ZM28.2334 17.0187C30.0884 11.6228 32.8359 8.327 34.9534 8.327C37.208 8.32409 40.1363 11.8795 42.0525 17.6516C42.177 18.0288 42.2937 18.408 42.4025 18.7891C39.887 19.5687 37.4258 20.5138 35.035 21.6183C32.6522 20.5003 30.1966 19.5444 27.685 18.757C27.8542 18.1737 28.037 17.5942 28.2334 17.0187ZM27.0667 21.172C28.7791 21.711 30.4631 22.3359 32.1125 23.0445C30.067 24.0984 28.0759 25.2466 26.1392 26.4891C26.3725 24.6283 26.6846 22.8462 27.0667 21.172ZM26.1421 43.5137C27.1085 44.1339 28.0895 44.7299 29.085 45.3016C30.1 45.8849 31.1277 46.4449 32.168 46.9816C30.5067 47.7147 28.8089 48.3621 27.0813 48.9212C26.6799 47.1361 26.3664 45.3324 26.1421 43.5166V43.5137ZM42.0555 52.6895C41.2795 55.16 40.0555 57.4666 38.4446 59.4941C38.0469 60.0753 37.5342 60.5688 36.9382 60.944C36.3422 61.3193 35.6756 61.5683 34.9796 61.6758C32.8534 61.6758 30.1438 58.5112 28.3005 53.2291C28.0827 52.6049 27.8824 51.9749 27.6996 51.3391C30.2231 50.5251 32.6885 49.5409 35.0788 48.3933C37.4899 49.5066 39.9715 50.4605 42.5075 51.2487C42.3675 51.7328 42.2168 52.2131 42.0555 52.6895ZM43.1113 48.8278C41.3686 48.2836 39.6536 47.6548 37.9721 46.9437C38.9618 46.4245 39.9584 45.8752 40.9617 45.2958C41.9923 44.7008 42.9956 44.0912 43.9717 43.467C43.7768 45.2675 43.4896 47.0568 43.1113 48.8278ZM44.415 34.9941C44.415 36.7655 44.3596 38.5349 44.2488 40.3024C42.8109 41.2766 41.2942 42.2274 39.7163 43.1374C38.1413 44.0445 36.5867 44.8787 35.0584 45.6341C33.4503 44.8641 31.8734 44.0338 30.3275 43.1433C28.7914 42.2585 27.2903 41.3164 25.8242 40.317C25.6881 38.5476 25.62 36.7762 25.62 35.0028C25.62 33.2315 25.6862 31.461 25.8184 29.6916C28.7504 27.6898 31.8294 25.9124 35.0292 24.3745C36.6159 25.1464 38.1743 25.9738 39.7046 26.8566C41.2407 27.7394 42.7477 28.6717 44.2255 29.6537C44.3518 31.4309 44.415 33.211 44.415 34.9941ZM47.2034 20.1395C52.8092 19.0516 57.0325 19.7837 58.0913 21.6183C59.22 23.5724 57.6042 27.8833 53.5588 32.4274C53.3352 32.6783 53.1038 32.9301 52.8646 33.1828C50.8943 31.4017 48.8051 29.7568 46.6113 28.2595C46.3904 25.6606 45.9957 23.0794 45.43 20.5333C46.0328 20.3855 46.6239 20.2542 47.2034 20.1395ZM46.8242 31.4708C48.3046 32.5512 49.7279 33.7078 51.0884 34.9358C49.7342 36.1834 48.3157 37.3595 46.8388 38.4591C46.8835 37.3041 46.9059 36.1491 46.9059 34.9941C46.9059 33.8196 46.8787 32.6452 46.8242 31.4708ZM58.1088 48.3553C57.0471 50.1958 52.9521 50.9628 47.4542 49.9245C46.8242 49.8059 46.1787 49.664 45.5175 49.4987C46.0696 46.9196 46.4467 44.3061 46.6463 41.6762C48.8362 40.1537 50.9187 38.4824 52.8792 36.6741C53.2234 37.0299 53.55 37.3838 53.8592 37.7358C55.6123 39.642 56.9994 41.8547 57.9513 44.2633C58.2559 44.8983 58.4271 45.5891 58.4542 46.293C58.4813 46.9968 58.3637 47.6987 58.1088 48.3553Z" fill="#C9E8FF"/>
</svg>
