<svg width="86" height="85" viewBox="0 0 86 85" fill="none" xmlns="http://www.w3.org/2000/svg">
<path d="M39.8232 36.968C38.7398 37.5935 37.8663 38.5262 37.313 39.6482C36.7598 40.7702 36.5516 42.031 36.7149 43.2713C36.8782 44.5116 37.4055 45.6756 38.2303 46.6162C39.0551 47.5568 40.1403 48.2316 41.3486 48.5555C42.5569 48.8794 43.8341 48.8377 45.0188 48.4357C46.2034 48.0337 47.2422 47.2895 48.0039 46.2972C48.7656 45.3048 49.216 44.1089 49.298 42.8606C49.38 41.6123 49.0901 40.3677 48.4648 39.2842C48.0496 38.5646 47.4967 37.9339 46.8376 37.428C46.1786 36.9222 45.4263 36.5511 44.6238 36.336C43.8213 36.1209 42.9843 36.066 42.1606 36.1744C41.3369 36.2829 40.5427 36.5525 39.8232 36.968ZM68.1742 43.8317C67.7587 43.3571 67.3207 42.8814 66.8603 42.4044C67.1814 42.0644 67.493 41.7256 67.7953 41.388C73.4796 34.9988 75.8809 28.5884 73.6567 24.7386C71.5246 21.0446 65.1815 19.9432 57.2376 21.4873C56.456 21.6408 55.678 21.8132 54.9036 22.0044C54.7548 21.4944 54.5978 20.9868 54.4326 20.4815C51.7373 12.3605 47.3846 7.07983 42.9363 7.08338C38.6721 7.08338 34.5496 12.0311 31.9182 19.6846C31.6585 20.4402 31.4188 21.2005 31.1992 21.9655C30.6821 21.838 30.1627 21.7199 29.6409 21.6113C21.2613 19.8936 14.5144 21.0269 12.2938 24.8838C10.1653 28.5778 12.3894 34.6234 17.7055 40.7221C18.2344 41.3242 18.7774 41.9145 19.3346 42.493C18.6759 43.1659 18.0561 43.8423 17.4753 44.5153C12.2867 50.529 10.1901 56.4719 12.3151 60.1517C14.5109 63.9555 21.1621 65.1986 29.2619 63.6048C29.9183 63.475 30.5712 63.3286 31.2205 63.1657C31.4566 63.9944 31.7175 64.8173 32.0032 65.6342C34.624 73.1319 38.7217 77.9167 42.9717 77.9167C47.3634 77.9167 51.7621 72.7707 54.429 64.9577C54.6415 64.3415 54.8363 63.7005 55.0276 63.0417C55.8657 63.2495 56.7098 63.4337 57.5598 63.5942C65.3621 65.0711 71.5565 63.913 73.678 60.2296C75.8703 56.4223 73.6071 50.0403 68.1742 43.8317ZM14.9146 26.3925C16.2817 24.0196 21.7961 23.0917 29.0317 24.5792C29.4945 24.6737 29.9655 24.7799 30.4448 24.898C29.7376 28.023 29.2383 31.1915 28.9503 34.3825C26.341 36.2174 23.853 38.219 21.5021 40.375C20.9851 39.8391 20.481 39.2901 19.9898 38.7282C15.4317 33.5078 13.6326 28.6203 14.9146 26.3925ZM28.6811 46.6792C26.8748 45.3086 25.1926 43.9061 23.6661 42.4965C25.189 41.094 26.8713 39.6986 28.6776 38.3315C28.6114 39.7222 28.5796 41.1141 28.5819 42.5071C28.5819 43.9002 28.615 45.2909 28.6811 46.6792ZM28.6811 60.6334C25.6113 61.3171 22.4418 61.4299 19.3311 60.9663C18.4783 60.8996 17.6483 60.6587 16.8923 60.2585C16.1363 59.8582 15.4704 59.3072 14.9359 58.6394C13.6432 56.4082 15.329 51.634 19.7667 46.4915C20.3239 45.8469 20.9001 45.2189 21.4951 44.6073C23.847 46.7766 26.3399 48.7879 28.9573 50.6282C29.2482 53.8596 29.7522 57.0682 30.4661 60.2332C29.8758 60.3819 29.2796 60.5165 28.6776 60.6369L28.6811 60.6334ZM53.8269 32.1619C52.6393 31.4134 51.4375 30.6898 50.2215 29.9909C49.0221 29.3014 47.8096 28.6368 46.5842 27.9969C48.5988 27.146 50.6543 26.3955 52.7432 25.748C53.212 27.8664 53.5738 30.0071 53.8269 32.1619ZM34.7834 20.6657C37.0359 14.1136 40.3721 10.1115 42.9434 10.1115C45.6811 10.108 49.2369 14.4253 51.5638 21.4342C51.7149 21.8923 51.8566 22.3527 51.9888 22.8155C48.9342 23.7621 45.9456 24.9098 43.0426 26.2509C40.1491 24.8933 37.1673 23.7326 34.1176 22.7765C34.323 22.0682 34.5449 21.3646 34.7834 20.6657ZM33.3667 25.709C35.446 26.3634 37.491 27.1223 39.4938 27.9828C37.0099 29.2625 34.5921 30.6567 32.2405 32.1655C32.5238 29.9059 32.9028 27.7419 33.3667 25.709ZM32.244 52.8382C33.4175 53.5914 34.6087 54.315 35.8176 55.0092C37.0501 55.7175 38.2979 56.3975 39.5611 57.0492C37.5439 57.9394 35.4823 58.7255 33.3844 59.4044C32.897 57.2369 32.5164 55.0466 32.244 52.8417V52.8382ZM51.5673 63.9803C50.6251 66.9802 49.1388 69.781 47.1828 72.243C46.6998 72.9487 46.0773 73.5479 45.3536 74.0036C44.6299 74.4593 43.8204 74.7617 42.9753 74.8921C40.3934 74.8921 37.1032 71.0494 34.8648 64.6355C34.6004 63.8775 34.3572 63.1125 34.1353 62.3405C37.1995 61.352 40.1932 60.1569 43.0957 58.7634C46.0234 60.1153 49.0368 61.2736 52.1163 62.2307C51.9463 62.8186 51.7633 63.4018 51.5673 63.9803ZM52.8494 59.2911C50.7334 58.6303 48.6508 57.8667 46.609 57.0032C47.8108 56.3727 49.0209 55.7057 50.2392 55.0021C51.4906 54.2796 52.7089 53.5394 53.8942 52.7815C53.6575 54.9678 53.3088 57.1405 52.8494 59.2911ZM54.4326 42.493C54.4326 44.6439 54.3653 46.7925 54.2307 48.9388C52.4846 50.1217 50.643 51.2763 48.7269 52.3813C46.8144 53.4828 44.9267 54.4957 43.0709 55.413C41.1183 54.478 39.2034 53.4698 37.3263 52.3884C35.461 51.3141 33.6383 50.1701 31.858 48.9565C31.6927 46.8079 31.6101 44.6569 31.6101 42.5036C31.6101 40.3526 31.6903 38.2028 31.8509 36.0542C35.4112 33.6235 39.15 31.4652 43.0355 29.5978C44.9621 30.5351 46.8546 31.5398 48.7128 32.6117C50.578 33.6837 52.4079 34.8158 54.2023 36.0082C54.3558 38.1662 54.4326 40.3278 54.4326 42.493ZM57.8184 24.4553C64.6255 23.1342 69.7538 24.0232 71.0394 26.2509C72.4101 28.6238 70.448 33.8584 65.5357 39.3763C65.2642 39.6809 64.9832 39.9866 64.6928 40.2936C62.3003 38.1308 59.7633 36.1334 57.0994 34.3153C56.8312 31.1595 56.352 28.0252 55.6651 24.9334C56.397 24.7539 57.1148 24.5946 57.8184 24.4553ZM57.358 38.2146C59.1556 39.5266 60.8839 40.931 62.5359 42.4221C60.8915 43.9372 59.1691 45.3652 57.3757 46.7005C57.43 45.298 57.4571 43.8955 57.4571 42.493C57.4571 41.0669 57.4241 39.6407 57.358 38.2146ZM71.0607 58.7173C69.7715 60.9521 64.799 61.8836 58.123 60.6228C57.358 60.4787 56.5741 60.3064 55.7713 60.1057C56.4417 56.9739 56.8996 53.8004 57.1419 50.6069C59.8011 48.7582 62.3299 46.7288 64.7105 44.533C65.1284 44.965 65.5251 45.3948 65.9005 45.8221C68.0292 48.1369 69.7136 50.8237 70.8694 53.7484C71.2394 54.5195 71.4472 55.3584 71.4801 56.213C71.513 57.0677 71.3702 57.92 71.0607 58.7173Z" fill="#C9E8FF"/>
</svg>
