<svg width="27" height="26" viewBox="0 0 27 26" fill="none" xmlns="http://www.w3.org/2000/svg">
<path d="M13.2254 0.0195312C11.4886 0.0195312 9.76881 0.363616 8.16423 1.03214C6.55966 1.70066 5.10171 2.68053 3.87362 3.91581C1.39338 6.41055 0 9.79415 0 13.3222C0 19.202 3.79568 24.1906 9.04615 25.9598C9.70742 26.0662 9.91902 25.6539 9.91902 25.2947V23.0465C6.2556 23.8447 5.4753 21.264 5.4753 21.264C4.86693 19.7208 4.00728 19.3085 4.00728 19.3085C2.80378 18.4837 4.09986 18.5103 4.09986 18.5103C5.4224 18.6034 6.12334 19.8805 6.12334 19.8805C7.27395 21.9025 9.21808 21.3039 9.97192 20.9846C10.091 20.1199 10.4348 19.5346 10.8051 19.202C7.86909 18.8695 4.78758 17.7254 4.78758 12.6571C4.78758 11.1805 5.29014 9.99657 6.14979 9.05207C6.01754 8.71951 5.55465 7.33602 6.28205 5.54016C6.28205 5.54016 7.39298 5.18098 9.91902 6.89703C10.9638 6.60437 12.1012 6.45805 13.2254 6.45805C14.3495 6.45805 15.4869 6.60437 16.5317 6.89703C19.0577 5.18098 20.1687 5.54016 20.1687 5.54016C20.8961 7.33602 20.4332 8.71951 20.3009 9.05207C21.1606 9.99657 21.6631 11.1805 21.6631 12.6571C21.6631 17.7387 18.5684 18.8562 15.6192 19.1887C16.0953 19.6011 16.5317 20.4126 16.5317 21.6497V25.2947C16.5317 25.6539 16.7433 26.0795 17.4178 25.9598C22.6683 24.1773 26.4507 19.202 26.4507 13.3222C26.4507 11.5753 26.1086 9.84548 25.444 8.23152C24.7794 6.61756 23.8052 5.15108 22.5771 3.91581C21.349 2.68053 19.8911 1.70066 18.2865 1.03214C16.6819 0.363616 14.9621 0.0195313 13.2254 0.0195312Z" fill="#8BA8C2"/>
</svg>
