<svg width="27" height="26" viewBox="0 0 27 26" fill="none" xmlns="http://www.w3.org/2000/svg">
<path d="M6.42508 3.47687C6.42472 4.19856 6.13769 4.89054 5.62712 5.40059C5.11656 5.91065 4.42429 6.19699 3.70261 6.19663C2.98092 6.19627 2.28894 5.90923 1.77888 5.39867C1.26883 4.88811 0.982489 4.19584 0.982849 3.47415C0.98321 2.75247 1.27024 2.06048 1.78081 1.55043C2.29137 1.04038 2.98364 0.754034 3.70533 0.754395C4.42701 0.754756 5.119 1.04179 5.62905 1.55235C6.1391 2.06292 6.42544 2.75519 6.42508 3.47687ZM6.50672 8.21162H1.06448V25.2458H6.50672V8.21162ZM15.1054 8.21162H9.69042V25.2458H15.051V16.3069C15.051 11.3273 21.5409 10.8647 21.5409 16.3069V25.2458H26.9151V14.4566C26.9151 6.06193 17.3096 6.37486 15.051 10.4974L15.1054 8.21162Z" fill="#8BA8C2"/>
</svg>
