<svg width="33" height="32" viewBox="0 0 33 32" fill="none" xmlns="http://www.w3.org/2000/svg">
<path d="M16.4472 2.66675C9.08716 2.66675 3.11383 8.64008 3.11383 16.0001C3.11383 23.3601 9.08716 29.3334 16.4472 29.3334C23.8072 29.3334 29.7805 23.3601 29.7805 16.0001C29.7805 8.64008 23.8072 2.66675 16.4472 2.66675ZM22.6338 11.7334C22.4338 13.8401 21.5672 18.9601 21.1272 21.3201C20.9405 22.3201 20.5672 22.6534 20.2205 22.6934C19.4472 22.7601 18.8605 22.1867 18.1138 21.6934C16.9405 20.9201 16.2738 20.4401 15.1405 19.6934C13.8205 18.8267 14.6738 18.3467 15.4338 17.5734C15.6338 17.3734 19.0472 14.2667 19.1138 13.9867C19.1231 13.9443 19.1219 13.9003 19.1102 13.8585C19.0986 13.8167 19.077 13.7783 19.0472 13.7467C18.9672 13.6801 18.8605 13.7067 18.7672 13.7201C18.6472 13.7467 16.7805 14.9867 13.1405 17.4401C12.6072 17.8001 12.1272 17.9867 11.7005 17.9734C11.2205 17.9601 10.3138 17.7067 9.63383 17.4801C8.79383 17.2134 8.1405 17.0667 8.19383 16.6001C8.2205 16.3601 8.55383 16.1201 9.1805 15.8667C13.0738 14.1734 15.6605 13.0534 16.9538 12.5201C20.6605 10.9734 21.4205 10.7067 21.9272 10.7067C22.0338 10.7067 22.2872 10.7334 22.4472 10.8667C22.5805 10.9734 22.6205 11.1201 22.6338 11.2267C22.6205 11.3067 22.6472 11.5467 22.6338 11.7334Z" fill="#8BA8C2"/>
</svg>
